<svg width="526" height="201" viewBox="0 0 526 201" fill="none" xmlns="http://www.w3.org/2000/svg">
<path d="M207.175 87.7816H216.744L225.83 111.46C227.143 115.013 229.112 120.257 229.492 124.466H230.148C230.517 120.245 232.405 115.002 233.614 111.46L242.435 87.7816H251.809L235.491 131.124H223.861L207.175 87.7816Z" fill="#7348CE"/>
<path d="M272.455 86.6538C281.932 86.6538 287.448 91.6217 287.448 102.202H287.92V87.7923H297.386V131.135H287.92V116.622H287.448C287.448 126.926 280.792 132.342 271.983 132.342C259.788 132.342 251.451 123.833 251.451 109.4C251.451 94.9682 261.297 86.6538 272.444 86.6538H272.455ZM288.3 109.492C288.3 100.224 282.957 94.6922 274.885 94.6922C266.813 94.6922 260.917 100.132 260.917 109.389C260.917 118.646 266.548 124.281 274.885 124.281C283.222 124.281 288.3 118.658 288.3 109.492Z" fill="#7348CE"/>
<path d="M305.678 69.5315H315.051V131.124H305.678V69.5315Z" fill="#7348CE"/>
<path d="M322.813 75.4194C322.813 72.2455 325.427 69.5315 328.709 69.5315C331.991 69.5315 334.524 72.2455 334.524 75.4194C334.524 78.5933 331.991 81.2268 328.709 81.2268C325.427 81.2268 322.813 78.6048 322.813 75.4194ZM323.942 87.7817H333.315V131.124H323.942V87.7817Z" fill="#7348CE"/>
<path d="M360.883 68.301C363.785 68.301 367.17 68.8645 368.748 69.52V77.5699C367.067 76.9144 365.005 76.3509 363.036 76.3509C358.718 76.3509 356.668 78.6049 356.668 83.8488V88.5292H366.606V96.0155H356.668V131.124H347.387V96.0155H339.05V88.5292H347.387V83.3773C347.387 72.5215 352.442 68.3125 360.894 68.3125L360.883 68.301ZM373.308 75.4194C373.308 72.2455 375.934 69.5315 379.216 69.5315C382.497 69.5315 385.019 72.2455 385.019 75.4194C385.019 78.5934 382.497 81.2268 379.216 81.2268C375.934 81.2268 373.308 78.6049 373.308 75.4194ZM374.437 87.7817H383.81V131.124H374.437V87.7817Z" fill="#7348CE"/>
<path d="M401.993 131.124H392.619V69.5315H401.993V131.124Z" fill="#7348CE"/>
<path d="M175.622 131.123H166.156V73.4517H175.622V131.123Z" fill="#7348CE"/>
<path d="M200.703 131.124C200.703 130.975 201.463 126.11 198.86 121.844C198.365 121.027 197.755 120.234 196.983 119.498C196.661 119.187 196.292 118.9 195.889 118.612C194.012 117.313 191.41 116.312 189.084 115.565C186.827 114.84 184.834 114.346 184.028 114.024C181.472 113 179.353 111.747 178.512 108.929C178.42 108.63 178.075 107.504 178.271 105.917C178.42 104.732 178.927 103.617 179.721 102.662C180.078 102.225 180.516 101.811 181.011 101.455C183.499 99.6492 186.228 99.1547 188.968 95.2447C189.728 94.1523 190.799 90.5298 190.938 87.7699H200.772C200.772 90.7943 200.104 93.3473 198.872 95.4057C198.02 96.8317 196.638 98.5797 193.816 100.086C190.488 101.869 186.562 102.559 184.961 102.915C182.957 103.352 181.184 104.41 181.161 106.124C181.161 107.228 181.702 108.182 183.499 108.929C185.353 109.677 188.485 109.941 190.408 110.102C194.841 110.447 198.469 110.735 202.511 112.644C203.915 113.311 205.102 114.081 206.138 114.944C206.495 115.243 207.22 115.933 207.347 116.082C208.994 117.83 210.272 120.13 211.147 122.959C211.274 123.454 211.366 123.753 211.527 124.466C212.045 126.49 212.345 128.698 212.425 131.124H200.703Z" fill="#7348CE"/>
<path d="M427.085 131.124C427.085 130.975 427.845 126.11 425.243 121.844C424.748 121.027 424.137 120.234 423.366 119.498C423.043 119.187 422.675 118.9 422.272 118.612C420.395 117.313 417.792 116.312 415.466 115.565C413.209 114.84 411.217 114.346 410.411 114.024C407.854 113 405.736 111.747 404.895 108.929C404.803 108.63 404.457 107.504 404.653 105.917C404.803 104.732 405.309 103.617 406.104 102.662C406.461 102.225 406.899 101.811 407.394 101.455C409.881 99.6492 412.61 99.1547 415.351 95.2447C416.111 94.1523 417.182 90.5298 417.32 87.7699H427.154C427.154 90.7943 426.486 93.3473 425.254 95.4057C424.402 96.8317 423.02 98.5797 420.199 100.086C416.871 101.869 412.944 102.559 411.344 102.915C409.34 103.352 407.567 104.41 407.543 106.124C407.543 107.228 408.085 108.182 409.881 108.929C411.735 109.677 414.867 109.941 416.79 110.102C421.224 110.447 424.851 110.735 428.893 112.644C430.298 113.311 431.484 114.081 432.52 114.944C432.877 115.243 433.603 115.933 433.73 116.082C435.376 117.83 436.655 120.13 437.53 122.959C437.656 123.454 437.748 123.753 437.91 124.466C438.428 126.49 438.727 128.698 438.808 131.124H427.085Z" fill="#7348CE"/>
<path d="M117.631 118.67C121.005 124.213 120.152 130.492 120.095 131.055H88.9457C87.679 131.055 86.6426 130.032 86.6426 128.755V75.3733C86.6426 74.1083 87.6675 73.0733 88.9457 73.0733H107.025C106.841 76.7647 105.413 81.6176 104.388 83.0781C100.726 88.3105 97.064 88.966 93.7476 91.381C93.0797 91.8524 92.5039 92.4159 92.0203 92.9909C90.9609 94.2674 90.2815 95.7394 90.0742 97.3493C89.8093 99.4768 90.2699 100.96 90.3966 101.386C91.5251 105.158 94.3579 106.837 97.778 108.205C98.8605 108.631 101.521 109.298 104.538 110.264C107.647 111.264 111.136 112.598 113.646 114.346C114.187 114.726 114.683 115.117 115.109 115.531C116.145 116.519 116.963 117.577 117.619 118.67H117.631Z" fill="#7348CE"/>
<path d="M144.692 75.384V128.766C144.692 130.031 143.667 131.066 142.389 131.066H135.767C135.664 127.835 135.261 124.879 134.57 122.188C134.351 121.234 134.236 120.831 134.063 120.176C132.889 116.392 131.184 113.31 128.973 110.976C128.801 110.78 127.845 109.849 127.361 109.458C125.991 108.285 124.39 107.273 122.513 106.376C117.101 103.823 112.253 103.432 106.322 102.972C103.755 102.753 99.5629 102.397 97.0756 101.408C94.6688 100.408 93.9319 99.131 93.9434 97.6591C93.9779 95.3706 96.3501 93.9561 99.0332 93.3696C101.175 92.8982 106.426 91.9667 110.883 89.5862C114.66 87.5508 116.525 85.2163 117.642 83.3188C119.289 80.5474 120.187 77.1434 120.187 73.107H142.4C143.667 73.107 144.703 74.1305 144.703 75.407L144.692 75.384Z" fill="#7348CE"/>
</svg>
