<svg width="526" height="201" viewBox="0 0 526 201" fill="none" xmlns="http://www.w3.org/2000/svg">
<path d="M525.334 0.495544H0V200.695H525.334V0.495544Z" fill="#FF8583"/>
<path d="M207.176 88.101H216.745L225.831 111.779C227.144 115.332 229.113 120.576 229.493 124.785H230.149C230.518 120.565 232.406 115.321 233.615 111.779L242.436 88.101H251.81L235.492 131.444H223.862L207.176 88.101Z" fill="black"/>
<path d="M272.455 86.9741C281.933 86.9741 287.448 91.942 287.448 102.522H287.921V88.1125H297.386V131.455H287.921V116.942H287.448C287.448 127.246 280.792 132.663 271.983 132.663C259.788 132.663 251.451 124.153 251.451 109.721C251.451 95.2884 261.297 86.9741 272.444 86.9741H272.455ZM288.301 109.813C288.301 100.544 282.957 95.0124 274.885 95.0124C266.813 95.0124 260.917 100.452 260.917 109.709C260.917 118.966 266.548 124.601 274.885 124.601C283.222 124.601 288.301 118.978 288.301 109.813Z" fill="black"/>
<path d="M305.678 69.851H315.051V131.444H305.678V69.851Z" fill="black"/>
<path d="M322.812 75.7389C322.812 72.565 325.426 69.851 328.708 69.851C331.99 69.851 334.524 72.565 334.524 75.7389C334.524 78.9128 331.99 81.5463 328.708 81.5463C325.426 81.5463 322.812 78.9243 322.812 75.7389ZM323.941 88.1012H333.315V131.444H323.941V88.1012Z" fill="black"/>
<path d="M360.882 68.6205C363.784 68.6205 367.17 69.184 368.747 69.8395V77.8894C367.066 77.2339 365.005 76.6704 363.035 76.6704C358.717 76.6704 356.667 78.9243 356.667 84.1683V88.8487H366.605V96.335H356.667V131.444H347.386V96.335H339.049V88.8487H347.386V83.6968C347.386 72.841 352.441 68.632 360.894 68.632L360.882 68.6205ZM373.307 75.7389C373.307 72.565 375.933 69.851 379.215 69.851C382.497 69.851 385.018 72.565 385.018 75.7389C385.018 78.9129 382.497 81.5463 379.215 81.5463C375.933 81.5463 373.307 78.9244 373.307 75.7389ZM374.436 88.1012H383.809V131.444H374.436V88.1012Z" fill="black"/>
<path d="M401.993 131.444H392.619V69.851H401.993V131.444Z" fill="black"/>
<path d="M175.622 131.442H166.156V73.7709H175.622V131.442Z" fill="black"/>
<path d="M200.702 131.443C200.702 131.294 201.462 126.43 198.86 122.163C198.364 121.347 197.754 120.553 196.983 119.817C196.66 119.507 196.292 119.219 195.889 118.932C194.012 117.632 191.409 116.632 189.083 115.884C186.826 115.16 184.834 114.665 184.028 114.343C181.471 113.32 179.353 112.066 178.512 109.249C178.42 108.95 178.074 107.823 178.27 106.236C178.42 105.051 178.926 103.936 179.721 102.982C180.078 102.545 180.516 102.131 181.011 101.774C183.498 99.9686 186.227 99.4741 188.968 95.5642C189.728 94.4717 190.799 90.8492 190.937 88.0893H200.771C200.771 91.1137 200.103 93.6667 198.871 95.7252C198.019 97.1511 196.637 98.8991 193.816 100.406C190.488 102.188 186.561 102.878 184.961 103.235C182.957 103.671 181.183 104.729 181.16 106.443C181.16 107.547 181.702 108.501 183.498 109.249C185.352 109.996 188.484 110.261 190.407 110.422C194.841 110.767 198.468 111.054 202.51 112.963C203.915 113.63 205.101 114.401 206.137 115.263C206.494 115.562 207.22 116.252 207.347 116.402C208.993 118.15 210.271 120.45 211.147 123.279C211.273 123.773 211.365 124.072 211.527 124.785C212.045 126.809 212.344 129.017 212.425 131.443H200.702Z" fill="black"/>
<path d="M427.085 131.443C427.085 131.294 427.845 126.43 425.242 122.163C424.747 121.347 424.137 120.553 423.365 119.817C423.043 119.507 422.675 119.219 422.271 118.932C420.394 117.632 417.792 116.632 415.466 115.884C413.209 115.16 411.217 114.665 410.411 114.343C407.854 113.32 405.735 112.066 404.895 109.249C404.803 108.95 404.457 107.823 404.653 106.236C404.803 105.051 405.309 103.936 406.104 102.982C406.461 102.545 406.898 102.131 407.394 101.774C409.881 99.9686 412.61 99.4741 415.351 95.5642C416.111 94.4717 417.182 90.8492 417.32 88.0893H427.154C427.154 91.1137 426.486 93.6667 425.254 95.7252C424.402 97.1511 423.02 98.8991 420.199 100.406C416.871 102.188 412.944 102.878 411.343 103.235C409.34 103.671 407.566 104.729 407.543 106.443C407.543 107.547 408.084 108.501 409.881 109.249C411.735 109.996 414.867 110.261 416.79 110.422C421.224 110.767 424.851 111.054 428.893 112.963C430.298 113.63 431.484 114.401 432.52 115.263C432.877 115.562 433.603 116.252 433.729 116.402C435.376 118.15 436.654 120.45 437.529 123.279C437.656 123.773 437.748 124.072 437.909 124.785C438.428 126.809 438.727 129.017 438.808 131.443H427.085Z" fill="black"/>
<path d="M117.631 118.991C121.005 124.534 120.152 130.812 120.095 131.376H88.9457C87.679 131.376 86.6426 130.352 86.6426 129.076V75.6939C86.6426 74.429 87.6675 73.394 88.9457 73.394H107.025C106.841 77.0854 105.413 81.9383 104.388 83.3988C100.726 88.6312 97.064 89.2867 93.7476 91.7016C93.0797 92.1731 92.5039 92.7366 92.0203 93.3116C90.9609 94.5881 90.2815 96.0601 90.0742 97.67C89.8093 99.7975 90.2699 101.281 90.3966 101.706C91.5251 105.478 94.3579 107.157 97.778 108.526C98.8605 108.951 101.521 109.618 104.538 110.584C107.647 111.585 111.136 112.919 113.646 114.667C114.187 115.046 114.683 115.437 115.109 115.851C116.145 116.84 116.963 117.898 117.619 118.991H117.631Z" fill="black"/>
<path d="M144.692 75.7041V129.086C144.692 130.351 143.667 131.386 142.389 131.386H135.768C135.664 128.155 135.261 125.199 134.57 122.508C134.351 121.554 134.236 121.151 134.063 120.496C132.889 116.712 131.184 113.63 128.973 111.296C128.801 111.1 127.845 110.169 127.361 109.778C125.991 108.605 124.39 107.593 122.513 106.696C117.101 104.143 112.253 103.752 106.323 103.292C103.755 103.074 99.563 102.717 97.0757 101.728C94.669 100.728 93.932 99.4512 93.9435 97.9792C93.978 95.6908 96.3502 94.2763 99.0333 93.6898C101.175 93.2183 106.426 92.2868 110.883 89.9064C114.66 87.8709 116.525 85.5365 117.642 83.639C119.289 80.8675 120.187 77.4636 120.187 73.4272H142.4C143.667 73.4272 144.704 74.4507 144.704 75.7271L144.692 75.7041Z" fill="black"/>
</svg>
