<svg width="526" height="201" viewBox="0 0 526 201" fill="none" xmlns="http://www.w3.org/2000/svg">
<path d="M525.334 0.535034H0V200.735H525.334V0.535034Z" fill="white"/>
<path d="M207.175 88.1411H216.744L225.83 111.819C227.143 115.373 229.112 120.616 229.492 124.825H230.148C230.517 120.605 232.405 115.361 233.614 111.819L242.435 88.1411H251.809L235.491 131.484H223.861L207.175 88.1411Z" fill="black"/>
<path d="M272.455 87.0134C281.932 87.0134 287.448 91.9813 287.448 102.561H287.92V88.1518H297.386V131.495H287.92V116.982H287.448C287.448 127.286 280.792 132.702 271.983 132.702C259.788 132.702 251.451 124.192 251.451 109.76C251.451 95.3277 261.297 87.0134 272.444 87.0134H272.455ZM288.3 109.852C288.3 100.583 282.957 95.0517 274.885 95.0517C266.813 95.0517 260.917 100.491 260.917 109.748C260.917 119.006 266.548 124.641 274.885 124.641C283.222 124.641 288.3 119.017 288.3 109.852Z" fill="black"/>
<path d="M305.678 69.8911H315.051V131.484H305.678V69.8911Z" fill="black"/>
<path d="M322.813 75.7789C322.813 72.605 325.427 69.8911 328.709 69.8911C331.991 69.8911 334.524 72.605 334.524 75.7789C334.524 78.9529 331.991 81.5863 328.709 81.5863C325.427 81.5863 322.813 78.9644 322.813 75.7789ZM323.942 88.1412H333.315V131.484H323.942V88.1412Z" fill="black"/>
<path d="M360.883 68.6606C363.785 68.6606 367.17 69.2241 368.748 69.8796V77.9294C367.067 77.2739 365.005 76.7104 363.036 76.7104C358.718 76.7104 356.668 78.9644 356.668 84.2083V88.8887H366.606V96.3751H356.668V131.484H347.387V96.3751H339.05V88.8887H347.387V83.7368C347.387 72.881 352.442 68.6721 360.894 68.6721L360.883 68.6606ZM373.308 75.779C373.308 72.605 375.934 69.8911 379.215 69.8911C382.497 69.8911 385.019 72.605 385.019 75.779C385.019 78.9529 382.497 81.5863 379.215 81.5863C375.934 81.5863 373.308 78.9644 373.308 75.779ZM374.437 88.1412H383.81V131.484H374.437V88.1412Z" fill="black"/>
<path d="M401.993 131.484H392.619V69.8911H401.993V131.484Z" fill="black"/>
<path d="M175.622 131.483H166.156V73.8112H175.622V131.483Z" fill="black"/>
<path d="M200.703 131.484C200.703 131.334 201.463 126.47 198.86 122.203C198.365 121.387 197.755 120.593 196.983 119.857C196.661 119.547 196.292 119.259 195.889 118.972C194.012 117.672 191.41 116.672 189.084 115.924C186.827 115.2 184.834 114.705 184.028 114.383C181.472 113.36 179.353 112.106 178.512 109.289C178.42 108.99 178.075 107.863 178.271 106.276C178.42 105.092 178.927 103.976 179.721 103.022C180.078 102.585 180.516 102.171 181.011 101.814C183.499 100.009 186.228 99.5142 188.968 95.6043C189.728 94.5118 190.799 90.8893 190.938 88.1294H200.772C200.772 91.1538 200.104 93.7068 198.872 95.7653C198.02 97.1912 196.638 98.9392 193.816 100.446C190.488 102.228 186.562 102.918 184.961 103.275C182.957 103.712 181.184 104.77 181.161 106.483C181.161 107.587 181.702 108.542 183.499 109.289C185.353 110.036 188.485 110.301 190.408 110.462C194.841 110.807 198.469 111.094 202.511 113.003C203.915 113.67 205.102 114.441 206.138 115.303C206.495 115.602 207.22 116.292 207.347 116.442C208.994 118.19 210.272 120.49 211.147 123.319C211.274 123.813 211.366 124.112 211.527 124.825C212.045 126.849 212.345 129.057 212.425 131.484H200.703Z" fill="black"/>
<path d="M427.085 131.484C427.085 131.334 427.845 126.47 425.243 122.203C424.748 121.387 424.137 120.593 423.366 119.857C423.043 119.547 422.675 119.259 422.272 118.972C420.395 117.672 417.792 116.672 415.466 115.924C413.209 115.2 411.217 114.705 410.411 114.383C407.854 113.36 405.736 112.106 404.895 109.289C404.803 108.99 404.457 107.863 404.653 106.276C404.803 105.092 405.309 103.976 406.104 103.022C406.461 102.585 406.899 102.171 407.394 101.814C409.881 100.009 412.61 99.5142 415.351 95.6043C416.111 94.5118 417.182 90.8893 417.32 88.1294H427.154C427.154 91.1538 426.486 93.7068 425.254 95.7653C424.402 97.1912 423.02 98.9392 420.199 100.446C416.871 102.228 412.944 102.918 411.344 103.275C409.34 103.712 407.567 104.77 407.543 106.483C407.543 107.587 408.085 108.542 409.881 109.289C411.735 110.036 414.867 110.301 416.79 110.462C421.224 110.807 424.851 111.094 428.893 113.003C430.298 113.67 431.484 114.441 432.52 115.303C432.877 115.602 433.603 116.292 433.73 116.442C435.376 118.19 436.655 120.49 437.53 123.319C437.656 123.813 437.748 124.112 437.91 124.825C438.428 126.849 438.727 129.057 438.808 131.484H427.085Z" fill="black"/>
<path d="M117.631 119.029C121.005 124.572 120.152 130.851 120.095 131.415H88.9457C87.679 131.415 86.6426 130.391 86.6426 129.115V75.7328C86.6426 74.4678 87.6675 73.4328 88.9457 73.4328H107.025C106.841 77.1242 105.413 81.9771 104.388 83.4376C100.726 88.67 97.064 89.3255 93.7476 91.7405C93.0797 92.212 92.5039 92.7754 92.0203 93.3504C90.9609 94.6269 90.2815 96.0989 90.0742 97.7089C89.8093 99.8363 90.2699 101.32 90.3966 101.745C91.5251 105.517 94.3579 107.196 97.778 108.565C98.8605 108.99 101.521 109.657 104.538 110.623C107.647 111.624 111.136 112.958 113.646 114.706C114.187 115.085 114.683 115.476 115.109 115.89C116.145 116.879 116.963 117.937 117.619 119.029H117.631Z" fill="#7348CE"/>
<path d="M144.692 75.7435V129.126C144.692 130.39 143.667 131.425 142.389 131.425H135.767C135.664 128.194 135.261 125.239 134.57 122.548C134.351 121.593 134.236 121.191 134.063 120.535C132.888 116.752 131.184 113.67 128.973 111.335C128.8 111.14 127.845 110.208 127.361 109.817C125.991 108.644 124.39 107.632 122.513 106.735C117.101 104.182 112.253 103.791 106.322 103.331C103.754 103.113 99.5628 102.757 97.0754 101.768C94.6687 100.767 93.9317 99.4906 93.9432 98.0186C93.9778 95.7301 96.35 94.3157 99.0331 93.7292C101.175 93.2577 106.426 92.3262 110.882 89.9457C114.66 87.9103 116.525 85.5758 117.642 83.6784C119.289 80.9069 120.187 77.503 120.187 73.4666H142.4C143.667 73.4666 144.703 74.49 144.703 75.7665L144.692 75.7435Z" fill="#7348CE"/>
</svg>
