<svg width="526" height="202" viewBox="0 0 526 202" fill="none" xmlns="http://www.w3.org/2000/svg">
<path d="M207.176 88.4608H216.745L225.831 112.139C227.144 115.692 229.113 120.936 229.493 125.145H230.149C230.518 120.925 232.406 115.681 233.615 112.139L242.436 88.4608H251.81L235.492 131.803H223.862L207.176 88.4608Z" fill="white"/>
<path d="M272.455 87.3338C281.933 87.3338 287.448 92.3017 287.448 102.882H287.921V88.4723H297.386V131.815H287.921V117.302H287.448C287.448 127.606 280.792 133.022 271.983 133.022C259.788 133.022 251.451 124.513 251.451 110.08C251.451 95.6481 261.297 87.3338 272.444 87.3338H272.455ZM288.301 110.172C288.301 100.904 282.957 95.3721 274.885 95.3721C266.813 95.3721 260.917 100.812 260.917 110.069C260.917 119.326 266.548 124.961 274.885 124.961C283.222 124.961 288.301 119.338 288.301 110.172Z" fill="white"/>
<path d="M305.678 70.2108H315.051V131.804H305.678V70.2108Z" fill="white"/>
<path d="M322.812 76.0986C322.812 72.9247 325.426 70.2108 328.708 70.2108C331.99 70.2108 334.524 72.9247 334.524 76.0986C334.524 79.2726 331.99 81.906 328.708 81.906C325.426 81.906 322.812 79.2841 322.812 76.0986ZM323.941 88.4609H333.315V131.804H323.941V88.4609Z" fill="white"/>
<path d="M360.882 68.9803C363.784 68.9803 367.17 69.5438 368.747 70.1993V78.2491C367.066 77.5936 365.005 77.0301 363.035 77.0301C358.717 77.0301 356.667 79.2841 356.667 84.528V89.2084H366.605V96.6948H356.667V131.804H347.386V96.6948H339.049V89.2084H347.386V84.0565C347.386 73.2007 352.441 68.9918 360.894 68.9918L360.882 68.9803ZM373.307 76.0987C373.307 72.9247 375.933 70.2108 379.215 70.2108C382.497 70.2108 385.018 72.9247 385.018 76.0987C385.018 79.2726 382.497 81.906 379.215 81.906C375.933 81.906 373.307 79.2841 373.307 76.0987ZM374.436 88.4609H383.809V131.804H374.436V88.4609Z" fill="white"/>
<path d="M401.993 131.804H392.619V70.2108H401.993V131.804Z" fill="white"/>
<path d="M175.622 131.802H166.156V74.1307H175.622V131.802Z" fill="white"/>
<path d="M200.702 131.803C200.702 131.654 201.462 126.789 198.86 122.523C198.364 121.706 197.754 120.913 196.983 120.177C196.66 119.866 196.292 119.579 195.889 119.291C194.012 117.992 191.409 116.991 189.083 116.244C186.826 115.52 184.834 115.025 184.028 114.703C181.471 113.68 179.353 112.426 178.512 109.609C178.42 109.31 178.074 108.183 178.27 106.596C178.42 105.411 178.926 104.296 179.721 103.341C180.078 102.904 180.516 102.49 181.011 102.134C183.498 100.328 186.227 99.8338 188.968 95.9239C189.728 94.8314 190.799 91.209 190.937 88.449H200.771C200.771 91.4735 200.103 94.0264 198.871 96.0849C198.019 97.5109 196.637 99.2588 193.816 100.765C190.488 102.548 186.561 103.238 184.961 103.594C182.957 104.031 181.183 105.089 181.16 106.803C181.16 107.907 181.702 108.861 183.498 109.609C185.352 110.356 188.484 110.621 190.407 110.782C194.841 111.127 198.468 111.414 202.51 113.323C203.915 113.99 205.101 114.761 206.137 115.623C206.494 115.922 207.22 116.612 207.347 116.762C208.993 118.509 210.271 120.809 211.147 123.638C211.273 124.133 211.365 124.432 211.527 125.145C212.045 127.169 212.344 129.377 212.425 131.803H200.702Z" fill="white"/>
<path d="M427.085 131.803C427.085 131.654 427.845 126.789 425.242 122.523C424.747 121.706 424.137 120.913 423.365 120.177C423.043 119.866 422.675 119.579 422.271 119.291C420.394 117.992 417.792 116.991 415.466 116.244C413.209 115.52 411.217 115.025 410.411 114.703C407.854 113.68 405.735 112.426 404.895 109.609C404.803 109.31 404.457 108.183 404.653 106.596C404.803 105.411 405.309 104.296 406.104 103.341C406.461 102.904 406.898 102.49 407.394 102.134C409.881 100.328 412.61 99.8338 415.351 95.9239C416.111 94.8314 417.182 91.209 417.32 88.449H427.154C427.154 91.4735 426.486 94.0264 425.254 96.0849C424.402 97.5109 423.02 99.2588 420.199 100.765C416.871 102.548 412.944 103.238 411.343 103.594C409.34 104.031 407.566 105.089 407.543 106.803C407.543 107.907 408.084 108.861 409.881 109.609C411.735 110.356 414.867 110.621 416.79 110.782C421.224 111.127 424.851 111.414 428.893 113.323C430.298 113.99 431.484 114.761 432.52 115.623C432.877 115.922 433.603 116.612 433.729 116.762C435.376 118.509 436.654 120.809 437.529 123.638C437.656 124.133 437.748 124.432 437.909 125.145C438.428 127.169 438.727 129.377 438.808 131.803H427.085Z" fill="white"/>
<path d="M117.631 119.35C121.005 124.893 120.152 131.172 120.095 131.736H88.9457C87.679 131.736 86.6426 130.712 86.6426 129.436V76.0537C86.6426 74.7887 87.6675 73.7537 88.9457 73.7537H107.025C106.841 77.4452 105.413 82.2981 104.388 83.7585C100.726 88.9909 97.064 89.6464 93.7476 92.0614C93.0797 92.5329 92.5039 93.0964 92.0203 93.6714C90.9609 94.9478 90.2815 96.4198 90.0742 98.0298C89.8093 100.157 90.2699 101.641 90.3966 102.066C91.5251 105.838 94.3579 107.517 97.778 108.886C98.8605 109.311 101.521 109.978 104.538 110.944C107.647 111.945 111.136 113.278 113.646 115.026C114.187 115.406 114.683 115.797 115.109 116.211C116.145 117.2 116.963 118.258 117.619 119.35H117.631Z" fill="#DAC3FF"/>
<path d="M144.692 76.0639V129.446C144.692 130.711 143.667 131.746 142.389 131.746H135.768C135.664 128.514 135.261 125.559 134.57 122.868C134.351 121.914 134.236 121.511 134.063 120.856C132.889 117.072 131.184 113.99 128.973 111.656C128.801 111.46 127.845 110.529 127.361 110.138C125.991 108.965 124.39 107.953 122.513 107.056C117.101 104.503 112.253 104.112 106.323 103.652C103.755 103.433 99.563 103.077 97.0757 102.088C94.669 101.087 93.932 99.8109 93.9435 98.339C93.978 96.0505 96.3502 94.636 99.0333 94.0496C101.175 93.5781 106.426 92.6466 110.883 90.2661C114.66 88.2307 116.525 85.8962 117.642 83.9987C119.289 81.2273 120.187 77.8234 120.187 73.7869H142.4C143.667 73.7869 144.704 74.8104 144.704 76.0869L144.692 76.0639Z" fill="#DAC3FF"/>
</svg>
