<svg width="526" height="201" viewBox="0 0 526 201" fill="none" xmlns="http://www.w3.org/2000/svg">
<path d="M525.334 0.495544H0V200.695H525.334V0.495544Z" fill="white"/>
<path d="M207.175 88.1017H216.744L225.83 111.78C227.143 115.333 229.112 120.577 229.492 124.786H230.148C230.517 120.566 232.405 115.322 233.614 111.78L242.435 88.1017H251.809L235.491 131.444H223.861L207.175 88.1017Z" fill="black"/>
<path d="M272.455 86.9738C281.932 86.9738 287.448 91.9418 287.448 102.522H287.92V88.1123H297.386V131.455H287.92V116.942H287.448C287.448 127.246 280.792 132.662 271.983 132.662C259.788 132.662 251.451 124.153 251.451 109.72C251.451 95.2882 261.297 86.9738 272.444 86.9738H272.455ZM288.3 109.812C288.3 100.544 282.957 95.0122 274.885 95.0122C266.813 95.0122 260.917 100.452 260.917 109.709C260.917 118.966 266.548 124.601 274.885 124.601C283.222 124.601 288.3 118.978 288.3 109.812Z" fill="black"/>
<path d="M305.678 69.8516H315.051V131.444H305.678V69.8516Z" fill="black"/>
<path d="M322.813 75.7395C322.813 72.5655 325.427 69.8516 328.709 69.8516C331.991 69.8516 334.524 72.5655 334.524 75.7395C334.524 78.9134 331.991 81.5468 328.709 81.5468C325.427 81.5468 322.813 78.9249 322.813 75.7395ZM323.942 88.1017H333.315V131.444H323.942V88.1017Z" fill="black"/>
<path d="M360.883 68.6211C363.785 68.6211 367.17 69.1846 368.748 69.8401V77.8899C367.067 77.2344 365.005 76.6709 363.036 76.6709C358.718 76.6709 356.668 78.9249 356.668 84.1688V88.8492H366.606V96.3356H356.668V131.444H347.387V96.3356H339.05V88.8492H347.387V83.6973C347.387 72.8415 352.442 68.6326 360.894 68.6326L360.883 68.6211ZM373.308 75.7395C373.308 72.5655 375.934 69.8516 379.215 69.8516C382.497 69.8516 385.019 72.5655 385.019 75.7395C385.019 78.9134 382.497 81.5469 379.215 81.5469C375.934 81.5469 373.308 78.9249 373.308 75.7395ZM374.437 88.1017H383.81V131.444H374.437V88.1017Z" fill="black"/>
<path d="M401.993 131.444H392.619V69.8516H401.993V131.444Z" fill="black"/>
<path d="M175.622 131.443H166.156V73.7717H175.622V131.443Z" fill="black"/>
<path d="M200.703 131.444C200.703 131.295 201.463 126.43 198.86 122.164C198.365 121.347 197.755 120.554 196.983 119.818C196.661 119.507 196.292 119.22 195.889 118.932C194.012 117.633 191.41 116.632 189.084 115.885C186.827 115.16 184.834 114.666 184.028 114.344C181.472 113.32 179.353 112.067 178.512 109.25C178.42 108.951 178.075 107.824 178.271 106.237C178.42 105.052 178.927 103.937 179.721 102.982C180.078 102.545 180.516 102.131 181.011 101.775C183.499 99.9692 186.228 99.4747 188.968 95.5648C189.728 94.4723 190.799 90.8499 190.938 88.0899H200.772C200.772 91.1144 200.104 93.6673 198.872 95.7258C198.02 97.1518 196.638 98.8997 193.816 100.406C190.488 102.189 186.562 102.879 184.961 103.235C182.957 103.672 181.184 104.73 181.161 106.444C181.161 107.548 181.702 108.502 183.499 109.25C185.353 109.997 188.485 110.262 190.408 110.423C194.841 110.768 198.469 111.055 202.511 112.964C203.915 113.631 205.102 114.401 206.138 115.264C206.495 115.563 207.22 116.253 207.347 116.402C208.994 118.15 210.272 120.45 211.147 123.279C211.274 123.774 211.366 124.073 211.527 124.786C212.045 126.81 212.345 129.018 212.425 131.444H200.703Z" fill="black"/>
<path d="M427.085 131.444C427.085 131.295 427.845 126.43 425.243 122.164C424.748 121.347 424.137 120.554 423.366 119.818C423.043 119.507 422.675 119.22 422.272 118.932C420.395 117.633 417.792 116.632 415.466 115.885C413.209 115.16 411.217 114.666 410.411 114.344C407.854 113.32 405.736 112.067 404.895 109.25C404.803 108.951 404.457 107.824 404.653 106.237C404.803 105.052 405.309 103.937 406.104 102.982C406.461 102.545 406.899 102.131 407.394 101.775C409.881 99.9692 412.61 99.4747 415.351 95.5648C416.111 94.4723 417.182 90.8499 417.32 88.0899H427.154C427.154 91.1144 426.486 93.6673 425.254 95.7258C424.402 97.1518 423.02 98.8997 420.199 100.406C416.871 102.189 412.944 102.879 411.344 103.235C409.34 103.672 407.567 104.73 407.543 106.444C407.543 107.548 408.085 108.502 409.881 109.25C411.735 109.997 414.867 110.262 416.79 110.423C421.224 110.768 424.851 111.055 428.893 112.964C430.298 113.631 431.484 114.401 432.52 115.264C432.877 115.563 433.603 116.253 433.73 116.402C435.376 118.15 436.655 120.45 437.53 123.279C437.656 123.774 437.748 124.073 437.91 124.786C438.428 126.81 438.727 129.018 438.808 131.444H427.085Z" fill="black"/>
<path d="M117.631 118.99C121.005 124.533 120.152 130.812 120.095 131.375H88.9457C87.679 131.375 86.6426 130.352 86.6426 129.075V75.6933C86.6426 74.4283 87.6675 73.3933 88.9457 73.3933H107.025C106.841 77.0848 105.413 81.9377 104.388 83.3982C100.726 88.6306 97.064 89.286 93.7476 91.701C93.0797 92.1725 92.5039 92.736 92.0203 93.311C90.9609 94.5875 90.2815 96.0594 90.0742 97.6694C89.8093 99.7969 90.2699 101.28 90.3966 101.706C91.5251 105.478 94.3579 107.157 97.778 108.525C98.8605 108.951 101.521 109.618 104.538 110.584C107.647 111.584 111.136 112.918 113.646 114.666C114.187 115.046 114.683 115.437 115.109 115.851C116.145 116.84 116.963 117.898 117.619 118.99H117.631Z" fill="black"/>
<path d="M144.692 75.704V129.086C144.692 130.351 143.667 131.386 142.389 131.386H135.767C135.664 128.155 135.261 125.199 134.57 122.508C134.351 121.554 134.236 121.151 134.063 120.496C132.888 116.712 131.184 113.63 128.973 111.296C128.8 111.1 127.845 110.169 127.361 109.778C125.991 108.605 124.39 107.593 122.513 106.696C117.101 104.143 112.253 103.752 106.322 103.292C103.754 103.074 99.5628 102.717 97.0754 101.728C94.6687 100.728 93.9317 99.4511 93.9432 97.9791C93.9778 95.6906 96.35 94.2762 99.0331 93.6897C101.175 93.2182 106.426 92.2867 110.882 89.9063C114.66 87.8708 116.525 85.5363 117.642 83.6389C119.289 80.8674 120.187 77.4635 120.187 73.4271H142.4C143.667 73.4271 144.703 74.4505 144.703 75.727L144.692 75.704Z" fill="black"/>
</svg>
