<svg width="102" height="102" viewBox="0 0 102 102" fill="none" xmlns="http://www.w3.org/2000/svg">
<rect width="101.33" height="101.33" transform="translate(0.00415039 0.421265)" fill="#DAC3FF"/>
<path d="M52.3241 65.6012C55.2541 70.4212 54.5141 75.8812 54.4641 76.3712H27.4141C26.3141 76.3712 25.4141 75.4812 25.4141 74.3712V27.9612C25.4141 26.8612 26.3041 25.9612 27.4141 25.9612H43.1141C42.9541 29.1712 41.7141 33.3912 40.8241 34.6612C37.6441 39.2112 34.4641 39.7812 31.5841 41.8812C31.0041 42.2912 30.5041 42.7812 30.0841 43.2812C29.1641 44.3912 28.5741 45.6712 28.3941 47.0712C28.1641 48.9212 28.5641 50.2112 28.6741 50.5812C29.6541 53.8612 32.1141 55.3212 35.0841 56.5112C36.0241 56.8812 38.3341 57.4612 40.9541 58.3012C43.6541 59.1712 46.6841 60.3312 48.8641 61.8512C49.3341 62.1812 49.7641 62.5212 50.1341 62.8812C51.0341 63.7412 51.7441 64.6612 52.3141 65.6112L52.3241 65.6012Z" fill="black"/>
<path d="M75.834 27.9612V74.3812C75.834 75.4812 74.944 76.3812 73.834 76.3812H68.084C67.994 73.5712 67.644 71.0012 67.044 68.6612C66.854 67.8312 66.754 67.4812 66.604 66.9112C65.584 63.6212 64.104 60.9412 62.184 58.9112C62.034 58.7412 61.204 57.9312 60.784 57.5912C59.594 56.5712 58.204 55.6912 56.574 54.9112C51.874 52.6912 47.664 52.3512 42.514 51.9512C40.284 51.7612 36.644 51.4512 34.484 50.5912C32.394 49.7212 31.754 48.6112 31.764 47.3312C31.794 45.3412 33.854 44.1112 36.184 43.6012C38.044 43.1912 42.604 42.3812 46.474 40.3112C49.754 38.5412 51.374 36.5112 52.344 34.8612C53.774 32.4512 54.554 29.4912 54.554 25.9812H73.844C74.944 25.9812 75.844 26.8712 75.844 27.9812L75.834 27.9612Z" fill="black"/>
</svg>
