<svg width="102" height="102" viewBox="0 0 102 102" fill="none" xmlns="http://www.w3.org/2000/svg">
<path d="M52.32 65.2213C55.25 70.0413 54.51 75.5013 54.46 75.9913H27.41C26.31 75.9913 25.41 75.1013 25.41 73.9913V27.5813C25.41 26.4813 26.3 25.5813 27.41 25.5813H43.11C42.95 28.7913 41.71 33.0113 40.82 34.2813C37.64 38.8313 34.46 39.4013 31.58 41.5013C31 41.9113 30.5 42.4013 30.08 42.9013C29.16 44.0113 28.57 45.2913 28.39 46.6913C28.16 48.5413 28.56 49.8313 28.67 50.2013C29.65 53.4813 32.11 54.9413 35.08 56.1313C36.02 56.5013 38.33 57.0813 40.95 57.9213C43.65 58.7913 46.68 59.9513 48.86 61.4713C49.33 61.8013 49.76 62.1413 50.13 62.5013C51.03 63.3613 51.74 64.2813 52.31 65.2313L52.32 65.2213Z" fill="#DAC3FF"/>
<path d="M75.83 27.5813V74.0013C75.83 75.1013 74.94 76.0013 73.83 76.0013H68.08C67.99 73.1913 67.64 70.6213 67.04 68.2813C66.85 67.4513 66.75 67.1013 66.6 66.5313C65.58 63.2413 64.1 60.5613 62.18 58.5313C62.03 58.3613 61.2 57.5513 60.78 57.2113C59.59 56.1913 58.2 55.3113 56.57 54.5313C51.87 52.3113 47.66 51.9713 42.51 51.5713C40.28 51.3813 36.64 51.0713 34.48 50.2113C32.39 49.3413 31.75 48.2313 31.76 46.9513C31.79 44.9613 33.85 43.7313 36.18 43.2213C38.04 42.8113 42.6 42.0013 46.47 39.9313C49.75 38.1613 51.37 36.1313 52.34 34.4813C53.77 32.0713 54.55 29.1113 54.55 25.6013H73.84C74.94 25.6013 75.84 26.4913 75.84 27.6013L75.83 27.5813Z" fill="#DAC3FF"/>
</svg>
