<svg width="102" height="102" viewBox="0 0 102 102" fill="none" xmlns="http://www.w3.org/2000/svg">
<rect width="101.33" height="101.33" transform="translate(0 0.231201)" fill="white"/>
<path d="M52.3199 65.4112C55.2499 70.2312 54.5099 75.6912 54.4599 76.1812H27.4099C26.3099 76.1812 25.4099 75.2912 25.4099 74.1812V27.7712C25.4099 26.6712 26.2999 25.7712 27.4099 25.7712H43.1099C42.9499 28.9812 41.7099 33.2012 40.8199 34.4712C37.6399 39.0212 34.4599 39.5912 31.5799 41.6912C30.9999 42.1012 30.4999 42.5912 30.0799 43.0912C29.1599 44.2012 28.5699 45.4812 28.3899 46.8812C28.1599 48.7312 28.5599 50.0212 28.6699 50.3912C29.6499 53.6712 32.1099 55.1312 35.0799 56.3212C36.0199 56.6912 38.3299 57.2712 40.9499 58.1112C43.6499 58.9812 46.6799 60.1412 48.8599 61.6612C49.3299 61.9912 49.7599 62.3312 50.1299 62.6912C51.0299 63.5512 51.7399 64.4712 52.3099 65.4212L52.3199 65.4112Z" fill="#7348CE"/>
<path d="M75.8299 27.7713V74.1913C75.8299 75.2913 74.9399 76.1913 73.8299 76.1913H68.0799C67.9899 73.3813 67.6399 70.8113 67.0399 68.4713C66.8499 67.6413 66.7499 67.2913 66.5999 66.7213C65.5799 63.4313 64.0999 60.7513 62.1799 58.7213C62.0299 58.5513 61.1999 57.7413 60.7799 57.4013C59.5899 56.3813 58.1999 55.5013 56.5699 54.7213C51.8699 52.5013 47.6599 52.1613 42.5099 51.7613C40.2799 51.5713 36.6399 51.2613 34.4799 50.4013C32.3899 49.5313 31.7499 48.4213 31.7599 47.1413C31.7899 45.1513 33.8499 43.9213 36.1799 43.4113C38.0399 43.0013 42.5999 42.1913 46.4699 40.1213C49.7499 38.3513 51.3699 36.3213 52.3399 34.6713C53.7699 32.2613 54.5499 29.3013 54.5499 25.7913H73.8399C74.9399 25.7913 75.8399 26.6813 75.8399 27.7913L75.8299 27.7713Z" fill="#7348CE"/>
</svg>
