<svg width="102" height="102" viewBox="0 0 102 102" fill="none" xmlns="http://www.w3.org/2000/svg">
<rect width="101.33" height="101.33" transform="translate(0 0.421265)" fill="white"/>
<path d="M52.3199 65.6012C55.2499 70.4212 54.5099 75.8812 54.4599 76.3712H27.4099C26.3099 76.3712 25.4099 75.4812 25.4099 74.3712V27.9612C25.4099 26.8612 26.2999 25.9612 27.4099 25.9612H43.1099C42.9499 29.1712 41.7099 33.3912 40.8199 34.6612C37.6399 39.2112 34.4599 39.7812 31.5799 41.8812C30.9999 42.2912 30.4999 42.7812 30.0799 43.2812C29.1599 44.3912 28.5699 45.6712 28.3899 47.0712C28.1599 48.9212 28.5599 50.2112 28.6699 50.5812C29.6499 53.8612 32.1099 55.3212 35.0799 56.5112C36.0199 56.8812 38.3299 57.4612 40.9499 58.3012C43.6499 59.1712 46.6799 60.3312 48.8599 61.8512C49.3299 62.1812 49.7599 62.5212 50.1299 62.8812C51.0299 63.7412 51.7399 64.6612 52.3099 65.6112L52.3199 65.6012Z" fill="black"/>
<path d="M75.8299 27.9612V74.3812C75.8299 75.4812 74.9399 76.3812 73.8299 76.3812H68.0799C67.9899 73.5712 67.6399 71.0012 67.0399 68.6612C66.8499 67.8312 66.7499 67.4812 66.5999 66.9112C65.5799 63.6212 64.0999 60.9412 62.1799 58.9112C62.0299 58.7412 61.1999 57.9312 60.7799 57.5912C59.5899 56.5712 58.1999 55.6912 56.5699 54.9112C51.8699 52.6912 47.6599 52.3512 42.5099 51.9512C40.2799 51.7612 36.6399 51.4512 34.4799 50.5912C32.3899 49.7212 31.7499 48.6112 31.7599 47.3312C31.7899 45.3412 33.8499 44.1112 36.1799 43.6012C38.0399 43.1912 42.5999 42.3812 46.4699 40.3112C49.7499 38.5412 51.3699 36.5112 52.3399 34.8612C53.7699 32.4512 54.5499 29.4912 54.5499 25.9812H73.8399C74.9399 25.9812 75.8399 26.8712 75.8399 27.9812L75.8299 27.9612Z" fill="black"/>
</svg>
