<svg width="102" height="103" viewBox="0 0 102 103" fill="none" xmlns="http://www.w3.org/2000/svg">
<rect width="101.33" height="101.33" transform="translate(0.00415039 0.783203)" fill="#DAC3FF"/>
<path d="M52.3241 65.9632C55.2541 70.7832 54.5141 76.2432 54.4641 76.7332H27.4141C26.3141 76.7332 25.4141 75.8432 25.4141 74.7332V28.3232C25.4141 27.2232 26.3041 26.3232 27.4141 26.3232H43.1141C42.9541 29.5332 41.7141 33.7532 40.8241 35.0232C37.6441 39.5732 34.4641 40.1432 31.5841 42.2432C31.0041 42.6532 30.5041 43.1432 30.0841 43.6432C29.1641 44.7532 28.5741 46.0332 28.3941 47.4332C28.1641 49.2832 28.5641 50.5732 28.6741 50.9432C29.6541 54.2232 32.1141 55.6832 35.0841 56.8732C36.0241 57.2432 38.3341 57.8232 40.9541 58.6632C43.6541 59.5332 46.6841 60.6932 48.8641 62.2132C49.3341 62.5432 49.7641 62.8832 50.1341 63.2432C51.0341 64.1032 51.7441 65.0232 52.3141 65.9732L52.3241 65.9632Z" fill="#7348CE"/>
<path d="M75.834 28.3233V74.7433C75.834 75.8433 74.944 76.7433 73.834 76.7433H68.084C67.994 73.9333 67.644 71.3633 67.044 69.0233C66.854 68.1933 66.754 67.8433 66.604 67.2733C65.584 63.9833 64.104 61.3033 62.184 59.2733C62.034 59.1033 61.204 58.2933 60.784 57.9533C59.594 56.9333 58.204 56.0533 56.574 55.2733C51.874 53.0533 47.664 52.7133 42.514 52.3133C40.284 52.1233 36.644 51.8133 34.484 50.9533C32.394 50.0833 31.754 48.9733 31.764 47.6933C31.794 45.7033 33.854 44.4733 36.184 43.9633C38.044 43.5533 42.604 42.7433 46.474 40.6733C49.754 38.9033 51.374 36.8733 52.344 35.2233C53.774 32.8133 54.554 29.8533 54.554 26.3433H73.844C74.944 26.3433 75.844 27.2333 75.844 28.3433L75.834 28.3233Z" fill="#7348CE"/>
</svg>
