<svg width="102" height="102" viewBox="0 0 102 102" fill="none" xmlns="http://www.w3.org/2000/svg">
<rect width="101.33" height="101.33" transform="translate(0 0.611328)" fill="black"/>
<path d="M52.3199 65.7914C55.2499 70.6114 54.5099 76.0714 54.4599 76.5614H27.4099C26.3099 76.5614 25.4099 75.6714 25.4099 74.5614V28.1514C25.4099 27.0514 26.2999 26.1514 27.4099 26.1514H43.1099C42.9499 29.3614 41.7099 33.5814 40.8199 34.8514C37.6399 39.4014 34.4599 39.9714 31.5799 42.0714C30.9999 42.4814 30.4999 42.9714 30.0799 43.4714C29.1599 44.5814 28.5699 45.8614 28.3899 47.2614C28.1599 49.1114 28.5599 50.4014 28.6699 50.7714C29.6499 54.0514 32.1099 55.5114 35.0799 56.7014C36.0199 57.0714 38.3299 57.6514 40.9499 58.4914C43.6499 59.3614 46.6799 60.5214 48.8599 62.0414C49.3299 62.3714 49.7599 62.7114 50.1299 63.0714C51.0299 63.9314 51.7399 64.8514 52.3099 65.8014L52.3199 65.7914Z" fill="white"/>
<path d="M75.8299 28.1514V74.5714C75.8299 75.6714 74.9399 76.5714 73.8299 76.5714H68.0799C67.9899 73.7614 67.6399 71.1914 67.0399 68.8514C66.8499 68.0214 66.7499 67.6714 66.5999 67.1014C65.5799 63.8114 64.0999 61.1314 62.1799 59.1014C62.0299 58.9314 61.1999 58.1214 60.7799 57.7814C59.5899 56.7614 58.1999 55.8814 56.5699 55.1014C51.8699 52.8814 47.6599 52.5414 42.5099 52.1414C40.2799 51.9514 36.6399 51.6414 34.4799 50.7814C32.3899 49.9114 31.7499 48.8014 31.7599 47.5214C31.7899 45.5314 33.8499 44.3014 36.1799 43.7914C38.0399 43.3814 42.5999 42.5714 46.4699 40.5014C49.7499 38.7314 51.3699 36.7014 52.3399 35.0514C53.7699 32.6414 54.5499 29.6814 54.5499 26.1714H73.8399C74.9399 26.1714 75.8399 27.0614 75.8399 28.1714L75.8299 28.1514Z" fill="white"/>
</svg>
