<svg width="102" height="102" viewBox="0 0 102 102" fill="none" xmlns="http://www.w3.org/2000/svg">
<path d="M52.32 65.6012C55.25 70.4212 54.51 75.8812 54.46 76.3712H27.41C26.31 76.3712 25.41 75.4812 25.41 74.3712V27.9612C25.41 26.8612 26.3 25.9612 27.41 25.9612H43.11C42.95 29.1712 41.71 33.3912 40.82 34.6612C37.64 39.2112 34.46 39.7812 31.58 41.8812C31 42.2912 30.5 42.7812 30.08 43.2812C29.16 44.3912 28.57 45.6712 28.39 47.0712C28.16 48.9212 28.56 50.2112 28.67 50.5812C29.65 53.8612 32.11 55.3212 35.08 56.5112C36.02 56.8812 38.33 57.4612 40.95 58.3012C43.65 59.1712 46.68 60.3312 48.86 61.8512C49.33 62.1812 49.76 62.5212 50.13 62.8812C51.03 63.7412 51.74 64.6612 52.31 65.6112L52.32 65.6012Z" fill="black"/>
<path d="M75.83 27.9612V74.3812C75.83 75.4812 74.94 76.3812 73.83 76.3812H68.08C67.99 73.5712 67.64 71.0012 67.04 68.6612C66.85 67.8312 66.75 67.4812 66.6 66.9112C65.58 63.6212 64.1 60.9412 62.18 58.9112C62.03 58.7412 61.2 57.9312 60.78 57.5912C59.59 56.5712 58.2 55.6912 56.57 54.9112C51.87 52.6912 47.66 52.3512 42.51 51.9512C40.28 51.7612 36.64 51.4512 34.48 50.5912C32.39 49.7212 31.75 48.6112 31.76 47.3312C31.79 45.3412 33.85 44.1112 36.18 43.6012C38.04 43.1912 42.6 42.3812 46.47 40.3112C49.75 38.5412 51.37 36.5112 52.34 34.8612C53.77 32.4512 54.55 29.4912 54.55 25.9812H73.84C74.94 25.9812 75.84 26.8712 75.84 27.9812L75.83 27.9612Z" fill="black"/>
</svg>
