<svg width="102" height="102" viewBox="0 0 102 102" fill="none" xmlns="http://www.w3.org/2000/svg">
<path d="M52.32 65.4112C55.25 70.2312 54.51 75.6912 54.46 76.1812H27.41C26.31 76.1812 25.41 75.2912 25.41 74.1812V27.7712C25.41 26.6712 26.3 25.7712 27.41 25.7712H43.11C42.95 28.9812 41.71 33.2012 40.82 34.4712C37.64 39.0212 34.46 39.5912 31.58 41.6912C31 42.1012 30.5 42.5912 30.08 43.0912C29.16 44.2012 28.57 45.4812 28.39 46.8812C28.16 48.7312 28.56 50.0212 28.67 50.3912C29.65 53.6712 32.11 55.1312 35.08 56.3212C36.02 56.6912 38.33 57.2712 40.95 58.1112C43.65 58.9812 46.68 60.1412 48.86 61.6612C49.33 61.9912 49.76 62.3312 50.13 62.6912C51.03 63.5512 51.74 64.4712 52.31 65.4212L52.32 65.4112Z" fill="#7348CE"/>
<path d="M75.83 27.7713V74.1913C75.83 75.2913 74.94 76.1913 73.83 76.1913H68.08C67.99 73.3813 67.64 70.8113 67.04 68.4713C66.85 67.6413 66.75 67.2913 66.6 66.7213C65.58 63.4313 64.1 60.7513 62.18 58.7213C62.03 58.5513 61.2 57.7413 60.78 57.4013C59.59 56.3813 58.2 55.5013 56.57 54.7213C51.87 52.5013 47.66 52.1613 42.51 51.7613C40.28 51.5713 36.64 51.2613 34.48 50.4013C32.39 49.5313 31.75 48.4213 31.76 47.1413C31.79 45.1513 33.85 43.9213 36.18 43.4113C38.04 43.0013 42.6 42.1913 46.47 40.1213C49.75 38.3513 51.37 36.3213 52.34 34.6713C53.77 32.2613 54.55 29.3013 54.55 25.7913H73.84C74.94 25.7913 75.84 26.6813 75.84 27.7913L75.83 27.7713Z" fill="#7348CE"/>
</svg>
