<svg width="102" height="102" viewBox="0 0 102 102" fill="none" xmlns="http://www.w3.org/2000/svg">
<rect width="101.33" height="101.33" transform="translate(0.00415039 0.0598145)" fill="#7348CE"/>
<path d="M52.3241 65.2399C55.2541 70.0599 54.5141 75.5198 54.4641 76.0098H27.4141C26.3141 76.0098 25.4141 75.1199 25.4141 74.0098V27.5999C25.4141 26.4999 26.3041 25.5999 27.4141 25.5999H43.1141C42.9541 28.8099 41.7141 33.0299 40.8241 34.2999C37.6441 38.8499 34.4641 39.4199 31.5841 41.5199C31.0041 41.9299 30.5041 42.4199 30.0841 42.9199C29.1641 44.0299 28.5741 45.3099 28.3941 46.7099C28.1641 48.5599 28.5641 49.8499 28.6741 50.2199C29.6541 53.4999 32.1141 54.9599 35.0841 56.1499C36.0241 56.5199 38.3341 57.0999 40.9541 57.9399C43.6541 58.8099 46.6841 59.9699 48.8641 61.4899C49.3341 61.8199 49.7641 62.1599 50.1341 62.5199C51.0341 63.3799 51.7441 64.2999 52.3141 65.2499L52.3241 65.2399Z" fill="white"/>
<path d="M75.834 27.5999V74.0199C75.834 75.1199 74.944 76.0199 73.834 76.0199H68.084C67.994 73.2099 67.644 70.6399 67.044 68.2999C66.854 67.4699 66.754 67.1199 66.604 66.5499C65.584 63.2599 64.104 60.5799 62.184 58.5499C62.034 58.3799 61.204 57.5699 60.784 57.2299C59.594 56.2099 58.204 55.3299 56.574 54.5499C51.874 52.3299 47.664 51.9899 42.514 51.5899C40.284 51.3999 36.644 51.0899 34.484 50.2299C32.394 49.3599 31.754 48.2499 31.764 46.9699C31.794 44.9799 33.854 43.7499 36.184 43.2399C38.044 42.8299 42.604 42.0199 46.474 39.9499C49.754 38.1799 51.374 36.1499 52.344 34.4999C53.774 32.0899 54.554 29.1299 54.554 25.6199H73.844C74.944 25.6199 75.844 26.5099 75.844 27.6199L75.834 27.5999Z" fill="white"/>
</svg>
