<svg width="102" height="102" viewBox="0 0 102 102" fill="none" xmlns="http://www.w3.org/2000/svg">
<rect width="101.33" height="101.33" transform="translate(0.00830078 0.421265)" fill="#FF8583"/>
<path d="M52.3282 65.6012C55.2582 70.4212 54.5182 75.8812 54.4682 76.3712H27.4182C26.3182 76.3712 25.4182 75.4812 25.4182 74.3712V27.9612C25.4182 26.8612 26.3082 25.9612 27.4182 25.9612H43.1182C42.9582 29.1712 41.7182 33.3912 40.8282 34.6612C37.6482 39.2112 34.4682 39.7812 31.5882 41.8812C31.0082 42.2912 30.5082 42.7812 30.0882 43.2812C29.1682 44.3912 28.5782 45.6712 28.3982 47.0712C28.1682 48.9212 28.5682 50.2112 28.6782 50.5812C29.6582 53.8612 32.1182 55.3212 35.0882 56.5112C36.0282 56.8812 38.3382 57.4612 40.9582 58.3012C43.6582 59.1712 46.6882 60.3312 48.8682 61.8512C49.3382 62.1812 49.7682 62.5212 50.1382 62.8812C51.0382 63.7412 51.7482 64.6612 52.3182 65.6112L52.3282 65.6012Z" fill="black"/>
<path d="M75.8382 27.9612V74.3812C75.8382 75.4812 74.9482 76.3812 73.8382 76.3812H68.0882C67.9982 73.5712 67.6482 71.0012 67.0482 68.6612C66.8582 67.8312 66.7582 67.4812 66.6082 66.9112C65.5882 63.6212 64.1082 60.9412 62.1882 58.9112C62.0382 58.7412 61.2082 57.9312 60.7882 57.5912C59.5982 56.5712 58.2082 55.6912 56.5782 54.9112C51.8782 52.6912 47.6682 52.3512 42.5182 51.9512C40.2882 51.7612 36.6482 51.4512 34.4882 50.5912C32.3982 49.7212 31.7582 48.6112 31.7682 47.3312C31.7982 45.3412 33.8582 44.1112 36.1882 43.6012C38.0482 43.1912 42.6082 42.3812 46.4782 40.3112C49.7582 38.5412 51.3782 36.5112 52.3482 34.8612C53.7782 32.4512 54.5582 29.4912 54.5582 25.9812H73.8482C74.9482 25.9812 75.8482 26.8712 75.8482 27.9812L75.8382 27.9612Z" fill="black"/>
</svg>
