<svg width="102" height="102" viewBox="0 0 102 102" fill="none" xmlns="http://www.w3.org/2000/svg">
<path d="M52.32 65.7914C55.25 70.6114 54.51 76.0714 54.46 76.5614H27.41C26.31 76.5614 25.41 75.6714 25.41 74.5614V28.1514C25.41 27.0514 26.3 26.1514 27.41 26.1514H43.11C42.95 29.3614 41.71 33.5814 40.82 34.8514C37.64 39.4014 34.46 39.9714 31.58 42.0714C31 42.4814 30.5 42.9714 30.08 43.4714C29.16 44.5814 28.57 45.8614 28.39 47.2614C28.16 49.1114 28.56 50.4014 28.67 50.7714C29.65 54.0514 32.11 55.5114 35.08 56.7014C36.02 57.0714 38.33 57.6514 40.95 58.4914C43.65 59.3614 46.68 60.5214 48.86 62.0414C49.33 62.3714 49.76 62.7114 50.13 63.0714C51.03 63.9314 51.74 64.8514 52.31 65.8014L52.32 65.7914Z" fill="white"/>
<path d="M75.83 28.1514V74.5714C75.83 75.6714 74.94 76.5714 73.83 76.5714H68.08C67.99 73.7614 67.64 71.1914 67.04 68.8514C66.85 68.0214 66.75 67.6714 66.6 67.1014C65.58 63.8114 64.1 61.1314 62.18 59.1014C62.03 58.9314 61.2 58.1214 60.78 57.7814C59.59 56.7614 58.2 55.8814 56.57 55.1014C51.87 52.8814 47.66 52.5414 42.51 52.1414C40.28 51.9514 36.64 51.6414 34.48 50.7814C32.39 49.9114 31.75 48.8014 31.76 47.5214C31.79 45.5314 33.85 44.3014 36.18 43.7914C38.04 43.3814 42.6 42.5714 46.47 40.5014C49.75 38.7314 51.37 36.7014 52.34 35.0514C53.77 32.6414 54.55 29.6814 54.55 26.1714H73.84C74.94 26.1714 75.84 27.0614 75.84 28.1714L75.83 28.1514Z" fill="white"/>
</svg>
